{"title":"Strike.Back.S03E07.HDTV.Xvid-MrX","uid":7661687,"size":578160909,"categoryP":"video","categoryS":"tv_shows","magnet":"?xt=urn:btih:0df3d481a9d3272080e866562e1156d9d30adffe&amp;dn=Strike.Back.S03E07.HDTV.Xvid-MrX&amp;tr=udp%3A%2F%2Ftracker.openbittorrent.com%3A80&amp;tr=udp%3A%2F%2Fopen.demonii.com%3A1337&amp;tr=udp%3A%2F%2Ftracker.coppersurfer.tk%3A6969&amp;tr=udp%3A%2F%2Fexodus.desync.com%3A6969","seeders":0,"leechers":4,"uploader":"D.N.M","files":-1,"time":1348323865,"description":"Strike.Back.S03E07.HDTV.Xvid-MrX\n &lt;a href=&quot;\nhttp://www.cinemax.com/strike-back&quot; rel=&quot;nofollow&quot; target=&quot;_NEW&quot;&gt;\nhttp://www.cinemax.com/strike-back&lt;/a&gt; &lt;a href=&quot;\nhttp://www.imdb.com/title/tt1492179/&quot; rel=&quot;nofollow&quot; target=&quot;_NEW&quot;&gt;\nhttp://www.imdb.com/title/tt1492179/&lt;/a&gt;\n\n\n\n\nGeneral\nComplete name                            : Strike.Back.S03E07.HDTV.Xvid-MrX.avi\nFormat                                   : AVI\nFormat/Info                              : Audio Video Interleave\nFile size                                : 550 MiB\nDuration                                 : 47mn 19s\nOverall bit rate mode                    : Variable\nOverall bit rate                         : 1 626 Kbps\n\nVideo\nID                                       : 0\nFormat                                   : MPEG-4 Visual\nFormat profile                           : Advanced Simple@L5\nFormat settings, BVOP                    : 1\nFormat settings, QPel                    : No\nFormat settings, GMC                     : No warppoints\nFormat settings, Matrix                  : Default (H.263)\nMuxing mode                              : Packed bitstream\nCodec ID                                 : XVID\nCodec ID/Hint                            : XviD\nDuration                                 : 47mn 19s\nBit rate                                 : 1 465 Kbps\nWidth                                    : 640 pixels\nHeight                                   : 352 pixels\nDisplay aspect ratio                     : 16:9\nFrame rate                               : 23.976 fps\nColor space                              : YUV\nChroma subsampling                       : 4:2:0\nBit depth                                : 8 bits\nScan type                                : Progressive\nCompression mode                         : Lossy\nBits/(Pixel*Frame)                       : 0.271\nStream size                              : 496 MiB (90%)\nWriting library                          : XviD 1.2.1 (UTC 2008-12-04)\n\nAudio\nID                                       : 1\nFormat                                   : MPEG Audio\nFormat version                           : Version 1\nFormat profile                           : Layer 3\nCodec ID                                 : 55\nCodec ID/Hint                            : MP3\nDuration                                 : 47mn 19s\nBit rate mode                            : Variable\nBit rate                                 : 148 Kbps\nMinimum bit rate                         : 128 Kbps\nChannel(s)                               : 2 channels\nSampling rate                            : 48.0 KHz\nCompression mode                         : Lossy\nStream size                              : 50.0 MiB (9%)\nAlignment                                : Aligned on interleaves\nInterleave, duration                     : 24 ms (0.58 video frame)\nInterleave, preload duration             : 223 ms\nTitle                                    : Strike.Back.S03E07\nWriting library                          : LAME3.99r\nEncoding settings                        : -m s -V 4 -q 0 -lowpass 17.5 --vbr-mt -b 128\n","torrent":{"xt":"urn:btih:0df3d481a9d3272080e866562e1156d9d30adffe","amp;dn":"Strike.Back.S03E07.HDTV.Xvid-MrX","amp;tr":["udp%3A%2F%2Ftracker.openbittorrent.com%3A80","udp%3A%2F%2Fopen.demonii.com%3A1337","udp%3A%2F%2Ftracker.coppersurfer.tk%3A6969","udp%3A%2F%2Fexodus.desync.com%3A6969"],"infoHash":"0df3d481a9d3272080e866562e1156d9d30adffe","infoHashBuffer":{"type":"Buffer","data":[13,243,212,129,169,211,39,32,128,232,102,86,46,17,86,217,211,10,223,254]},"announce":[],"urlList":[]}}